{
    "asset" : {
        "generator" : "Khronos glTF Blender I/O v1.7.33",
        "version" : "2.0"
    },
    "scene" : 0,
    "scenes" : [
        {
            "name" : "Scene",
            "nodes" : [
                0
            ]
        }
    ],
    "nodes" : [
        {
            "mesh" : 0,
            "name" : "tree small joined",
            "rotation" : [
                0.2535047233104706,
                0.0360812209546566,
                0.7537140846252441,
                0.6052675843238831
            ],
            "scale" : [
                0.45557641983032227,
                0.45557647943496704,
                0.45557650923728943
            ],
            "translation" : [
                0.11529585719108582,
                -0.06865763664245605,
                -0.17044806480407715
            ]
        }
    ],
    "materials" : [
        {
            "doubleSided" : true,
            "name" : "bark brown",
            "pbrMetallicRoughness" : {
                "baseColorTexture" : {
                    "index" : 0
                },
                "metallicFactor" : 0,
                "roughnessFactor" : 0.5799160003662109
            }
        },
        {
            "doubleSided" : true,
            "name" : "leaf oak green",
            "pbrMetallicRoughness" : {
                "baseColorTexture" : {
                    "index" : 1
                },
                "metallicFactor" : 0,
                "roughnessFactor" : 0.690034806728363
            }
        }
    ],
    "meshes" : [
        {
            "name" : "tree small joined",
            "primitives" : [
                {
                    "attributes" : {
                        "POSITION" : 0,
                        "NORMAL" : 1,
                        "TANGENT" : 2,
                        "TEXCOORD_0" : 3,
                        "COLOR_0" : 4
                    },
                    "indices" : 5,
                    "material" : 0
                },
                {
                    "attributes" : {
                        "POSITION" : 6,
                        "NORMAL" : 7,
                        "TANGENT" : 8,
                        "TEXCOORD_0" : 9,
                        "COLOR_0" : 10
                    },
                    "indices" : 11,
                    "material" : 1
                }
            ]
        }
    ],
    "textures" : [
        {
            "sampler" : 0,
            "source" : 0
        },
        {
            "sampler" : 0,
            "source" : 1
        }
    ],
    "images" : [
        {
            "bufferView" : 6,
            "mimeType" : "image/png",
            "name" : "bark-oldbrown-c"
        },
        {
            "bufferView" : 13,
            "mimeType" : "image/png",
            "name" : "oak-branch-c-oak-branch-a"
        }
    ],
    "accessors" : [
        {
            "bufferView" : 0,
            "componentType" : 5126,
            "count" : 3059,
            "max" : [
                8.031401634216309,
                3.160290002822876,
                2.071031332015991
            ],
            "min" : [
                -0.06397277116775513,
                -7.215825080871582,
                -4.632732391357422
            ],
            "type" : "VEC3"
        },
        {
            "bufferView" : 1,
            "componentType" : 5126,
            "count" : 3059,
            "type" : "VEC3"
        },
        {
            "bufferView" : 2,
            "componentType" : 5126,
            "count" : 3059,
            "type" : "VEC4"
        },
        {
            "bufferView" : 3,
            "componentType" : 5126,
            "count" : 3059,
            "type" : "VEC2"
        },
        {
            "bufferView" : 4,
            "componentType" : 5123,
            "count" : 3059,
            "normalized" : true,
            "type" : "VEC4"
        },
        {
            "bufferView" : 5,
            "componentType" : 5123,
            "count" : 11958,
            "type" : "SCALAR"
        },
        {
            "bufferView" : 7,
            "componentType" : 5126,
            "count" : 6264,
            "max" : [
                8.619633674621582,
                3.6019327640533447,
                2.700674533843994
            ],
            "min" : [
                0.5378053188323975,
                -7.706514835357666,
                -5.605040550231934
            ],
            "type" : "VEC3"
        },
        {
            "bufferView" : 8,
            "componentType" : 5126,
            "count" : 6264,
            "type" : "VEC3"
        },
        {
            "bufferView" : 9,
            "componentType" : 5126,
            "count" : 6264,
            "type" : "VEC4"
        },
        {
            "bufferView" : 10,
            "componentType" : 5126,
            "count" : 6264,
            "type" : "VEC2"
        },
        {
            "bufferView" : 11,
            "componentType" : 5123,
            "count" : 6264,
            "normalized" : true,
            "type" : "VEC4"
        },
        {
            "bufferView" : 12,
            "componentType" : 5123,
            "count" : 16704,
            "type" : "SCALAR"
        }
    ],
    "bufferViews" : [
        {
            "buffer" : 0,
            "byteLength" : 36708,
            "byteOffset" : 0
        },
        {
            "buffer" : 0,
            "byteLength" : 36708,
            "byteOffset" : 36708
        },
        {
            "buffer" : 0,
            "byteLength" : 48944,
            "byteOffset" : 73416
        },
        {
            "buffer" : 0,
            "byteLength" : 24472,
            "byteOffset" : 122360
        },
        {
            "buffer" : 0,
            "byteLength" : 24472,
            "byteOffset" : 146832
        },
        {
            "buffer" : 0,
            "byteLength" : 23916,
            "byteOffset" : 171304
        },
        {
            "buffer" : 0,
            "byteLength" : 642957,
            "byteOffset" : 195220
        },
        {
            "buffer" : 0,
            "byteLength" : 75168,
            "byteOffset" : 838180
        },
        {
            "buffer" : 0,
            "byteLength" : 75168,
            "byteOffset" : 913348
        },
        {
            "buffer" : 0,
            "byteLength" : 100224,
            "byteOffset" : 988516
        },
        {
            "buffer" : 0,
            "byteLength" : 50112,
            "byteOffset" : 1088740
        },
        {
            "buffer" : 0,
            "byteLength" : 50112,
            "byteOffset" : 1138852
        },
        {
            "buffer" : 0,
            "byteLength" : 33408,
            "byteOffset" : 1188964
        },
        {
            "buffer" : 0,
            "byteLength" : 233568,
            "byteOffset" : 1222372
        }
    ],
    "samplers" : [
        {
            "magFilter" : 9729,
            "minFilter" : 9987
        }
    ],
    "buffers" : [
        {
            "byteLength" : 1455940,
            "uri" : "data:application/octet-stream;base64,"
        }
    ]
}
